<svg width="16" height="16" viewBox="0 0 16 16" xmlns="http://www.w3.org/2000/svg"><path d="M12.1643 10.5843C11.6416 10.0682 10.989 10.0682 10.4696 10.5843C10.0734 10.9771 9.67723 11.37 9.28769 11.7695C9.18114 11.8794 9.09125 11.9027 8.9614 11.8295C8.70503 11.6896 8.43202 11.5764 8.18564 11.4233C7.03698 10.7008 6.07477 9.77189 5.22243 8.72645C4.79959 8.20706 4.42336 7.65105 4.16033 7.02511C4.10706 6.89859 4.11705 6.81536 4.22026 6.71215C4.61647 6.32926 5.00268 5.93639 5.39223 5.54352C5.93493 4.99749 5.93493 4.35824 5.3889 3.80888C5.07926 3.49592 4.76962 3.18961 4.45998 2.87664C4.14036 2.55702 3.82406 2.23407 3.5011 1.91777C2.97838 1.40837 2.32581 1.40837 1.80641 1.9211C1.40688 2.31397 1.02399 2.71683 0.617799 3.10305C0.241571 3.45929 0.0517928 3.89545 0.0118394 4.40485C-0.0514202 5.23388 0.151676 6.0163 0.438009 6.77874C1.02399 8.35688 1.91628 9.75857 2.99836 11.0437C4.45998 12.7817 6.20462 14.1567 8.24557 15.1489C9.1645 15.5951 10.1167 15.938 11.1522 15.9946C11.8647 16.0345 12.484 15.8548 12.98 15.2987C13.3196 14.9192 13.7025 14.5729 14.0621 14.21C14.5948 13.6707 14.5982 13.0181 14.0688 12.4854C13.4362 11.8495 12.8003 11.2169 12.1643 10.5843Z" fill="#9D705B"/><path d="M11.5283 7.93074L12.7569 7.72098C12.5638 6.5923 12.0311 5.57016 11.222 4.75777C10.3663 3.9021 9.28426 3.36273 8.09232 3.19626L7.91919 4.43148C8.84145 4.56133 9.68047 4.97751 10.343 5.64007C10.969 6.26601 11.3785 7.05842 11.5283 7.93074Z" fill="#9D705B"/><path d="M13.4493 2.59031C12.031 1.17197 10.2364 0.276344 8.25541 0L8.08228 1.23523C9.79361 1.47495 11.3451 2.25071 12.5704 3.47262C13.7323 4.63459 14.4948 6.10288 14.7711 7.71766L15.9997 7.50791C15.6767 5.63676 14.7944 3.93874 13.4493 2.59031Z" fill="#9D705B"/></svg>
