<svg width="20" height="20" viewBox="0 0 20 20" xmlns="http://www.w3.org/2000/svg"><path d="M19.2959 11.5775C19.8926 6.55501 19.0092 3.38417 17.4159 1.95L17.4167 1.94917C14.8451 -0.499999 6.16007 -0.862499 3.0834 2.05917C1.70173 3.48834 1.21507 5.58584 1.16173 8.18251C1.1084 10.78 1.04507 15.6458 5.57923 16.9658H5.5834L5.57923 18.9817C5.57923 18.9817 5.5484 19.7983 6.07007 19.9625C6.66673 20.1558 6.93673 19.7767 8.79257 17.56C11.8959 17.8292 14.2792 17.2125 14.5501 17.1225C15.1767 16.9125 18.7226 16.4433 19.2959 11.5775ZM9.0984 16.1417C9.0984 16.1417 7.13423 18.5908 6.5234 19.2267C6.3234 19.4333 6.10423 19.4142 6.10757 19.0042C6.10757 18.735 6.12257 15.6575 6.12257 15.6575C2.2784 14.5558 2.50507 10.4125 2.54673 8.24501C2.5884 6.07667 2.98507 4.30084 4.15507 3.105C6.85423 0.574169 14.4684 1.14 16.4084 2.96334C18.7801 5.06584 17.9359 11.0058 17.9409 11.2083C17.4534 15.27 14.5801 15.5275 14.0517 15.7033C13.8259 15.7783 11.7301 16.3175 9.0984 16.1417Z"/><path d="M10.185 3.58083C9.86413 3.58083 9.86413 4.08083 10.185 4.085C12.6741 4.10417 14.7241 5.83917 14.7466 9.02167C14.7466 9.3575 15.2383 9.35333 15.2341 9.0175H15.2333C15.2066 5.58833 12.9683 3.6 10.185 3.58083Z"/><path d="M13.4592 8.49417C13.4517 8.82584 13.9425 8.84167 13.9467 8.50584C13.9875 6.615 12.8217 5.0575 10.6309 4.89333C10.31 4.87 10.2767 5.37417 10.5967 5.3975C12.4967 5.54167 13.4975 6.83834 13.4592 8.49417Z"/><path d="M12.9343 10.645C12.5226 10.4067 12.1034 10.555 11.9301 10.7892L11.5676 11.2583C11.3834 11.4967 11.0393 11.465 11.0393 11.465C8.5276 10.8008 7.85593 8.1725 7.85593 8.1725C7.85593 8.1725 7.8251 7.81666 8.0551 7.62583L8.50843 7.25083C8.7351 7.07083 8.87843 6.6375 8.6476 6.21166C8.03093 5.0975 7.61677 4.71333 7.40593 4.41833C7.18427 4.14083 6.85093 4.07833 6.50426 4.26583H6.49676C5.77593 4.6875 4.98676 5.47666 5.23926 6.28916C5.6701 7.14583 6.46176 9.87666 8.9851 11.94C10.1709 12.9158 12.0476 13.9158 12.8443 14.1467L12.8518 14.1583C13.6368 14.42 14.4001 13.6 14.8076 12.8575V12.8517C14.9884 12.4925 14.9284 12.1525 14.6643 11.93C14.1959 11.4733 13.4893 10.9692 12.9343 10.645Z"/><path d="M10.9741 6.75334C11.775 6.8 12.1633 7.21834 12.205 8.07751C12.22 8.41334 12.7075 8.39001 12.6925 8.05417C12.6391 6.9325 12.0541 6.3075 11.0008 6.24917C10.68 6.23 10.65 6.73417 10.9741 6.75334Z"/></svg>
