<svg width="20" height="20" viewBox="0 0 20 20" xmlns="http://www.w3.org/2000/svg"><path d="M14.799 11.4923C14.7601 11.4736 13.302 10.7556 13.0429 10.6623C12.9372 10.6243 12.8239 10.5873 12.7033 10.5873C12.5065 10.5873 12.3411 10.6854 12.2122 10.8781C12.0666 11.0946 11.6257 11.61 11.4894 11.764C11.4716 11.7843 11.4474 11.8086 11.4328 11.8086C11.4198 11.8086 11.1941 11.7156 11.1258 11.686C9.56171 11.0066 8.3745 9.37272 8.21171 9.0972C8.18846 9.05759 8.18749 9.0396 8.1873 9.0396C8.19301 9.01863 8.24561 8.9659 8.27275 8.93869C8.35217 8.86012 8.4382 8.75655 8.52145 8.65636C8.56087 8.60889 8.60035 8.56136 8.63911 8.51655C8.75989 8.37603 8.81366 8.26694 8.876 8.14058L8.90866 8.07493C9.06087 7.77252 8.93087 7.51733 8.88885 7.43493C8.85437 7.36597 8.23872 5.88012 8.17327 5.72402C8.01587 5.34733 7.80788 5.17194 7.51885 5.17194C7.49204 5.17194 7.51885 5.17194 7.40639 5.17668C7.26944 5.18246 6.52366 5.28064 6.19392 5.4885C5.84424 5.70895 5.25269 6.41168 5.25269 7.64752C5.25269 8.7598 5.95853 9.80999 6.26158 10.2094C6.26911 10.2195 6.28295 10.2399 6.30301 10.2693C7.46359 11.9642 8.91041 13.2203 10.3771 13.8062C11.7891 14.3703 12.4577 14.4354 12.8379 14.4354C12.8379 14.4354 12.8379 14.4354 12.8379 14.4354C12.9977 14.4354 13.1255 14.4229 13.2383 14.4118L13.3099 14.405C13.7977 14.3617 14.8696 13.8063 15.1135 13.1287C15.3055 12.595 15.3562 12.0119 15.2284 11.8003C15.1409 11.6564 14.99 11.584 14.799 11.4923Z"/><path d="M10.1778 0C4.76114 0 0.354385 4.37364 0.354385 9.74955C0.354385 11.4883 0.81971 13.1903 1.7012 14.6799L0.0139953 19.6569C-0.0174333 19.7497 0.00594334 19.8523 0.0745797 19.9221C0.124125 19.9727 0.191333 20 0.259969 20C0.286268 20 0.312762 19.996 0.338606 19.9878L5.52822 18.3387C6.94835 19.0975 8.55341 19.498 10.1778 19.498C15.5939 19.4981 20.0002 15.1249 20.0002 9.74955C20.0002 4.37364 15.5939 0 10.1778 0ZM10.1778 17.4671C8.64926 17.4671 7.1688 17.0258 5.8962 16.1907C5.85341 16.1626 5.80374 16.1482 5.75374 16.1482C5.72731 16.1482 5.70081 16.1522 5.67503 16.1604L3.07536 16.9868L3.91458 14.5108C3.94172 14.4307 3.92815 14.3423 3.87815 14.274C2.90906 12.9499 2.39679 11.3854 2.39679 9.74955C2.39679 5.49351 5.88731 2.03091 10.1777 2.03091C14.4676 2.03091 17.9577 5.49351 17.9577 9.74955C17.9578 14.0051 14.4677 17.4671 10.1778 17.4671Z"/></svg>
